<?xml version="1.0"?>
<svg xmlns="http://www.w3.org/2000/svg" id="Capa_1" enable-background="new 0 0 512 512" height="512px" viewBox="0 0 512 512" width="512px"><g><g><path d="m150 46c-82.705 0-150 67.295-150 150 0 27.803 7.529 54.551 21.87 77.856l-20.786 51.534c-2.241 5.581-.938 11.968 3.311 16.216 4.316 4.316 10.731 5.522 16.216 3.311l51.533-20.786c95.794 58.956 227.856-7.623 227.856-128.131 0-82.705-67.295-150-150-150zm-45 165c0 8.291-6.709 15-15 15s-15-6.709-15-15v-30c0-8.291 6.709-15 15-15s15 6.709 15 15zm60 0c0 8.291-6.709 15-15 15s-15-6.709-15-15v-30c0-8.291 6.709-15 15-15s15 6.709 15 15zm60 0c0 8.291-6.709 15-15 15s-15-6.709-15-15v-30c0-8.291 6.709-15 15-15s15 6.709 15 15z" data-original="#000000" class="active-path" data-old_color="#000000" fill="#D7D7FF"/><path d="m490.13 393.856c14.341-23.305 21.87-50.053 21.87-77.856 0-82.705-67.295-150-150-150-10.917 0-21.608 1.562-32.119 3.856 1.255 8.559 2.119 17.241 2.119 26.144 0 33.615-8.791 64.051-24.706 91.068 5.654 2.148 9.706 7.52 9.706 13.932v30c0 8.291-6.709 15-15 15s-15-6.709-15-15v-16.122c-10.131 11.512-21.625 21.956-34.6 30.683-10.172 6.777-21.134 12.021-32.395 16.547 19.587 60.068 75.476 103.892 141.995 103.892 27.803 0 54.551-7.529 77.856-21.87l51.533 20.786c5.484 2.211 11.899 1.006 16.216-3.311 4.248-4.248 5.552-10.635 3.311-16.216zm-113.13-62.856c0 8.291-6.709 15-15 15s-15-6.709-15-15v-30c0-8.291 6.709-15 15-15s15 6.709 15 15zm60 0c0 8.291-6.709 15-15 15s-15-6.709-15-15v-30c0-8.291 6.709-15 15-15s15 6.709 15 15z" data-original="#000000" class="active-path" data-old_color="#000000" fill="#D7D7FF"/></g></g> </svg>
