<?xml version="1.0"?>
<svg xmlns="http://www.w3.org/2000/svg" xmlns:xlink="http://www.w3.org/1999/xlink" version="1.1" id="Capa_1" x="0px" y="0px" viewBox="0 0 512 512" style="enable-background:new 0 0 512 512;" xml:space="preserve" width="512px" height="512px"><g><g>
	<g>
		<path d="M375.996,331.002c-24.814,0-45,20.186-45,45c0,24.814,20.186,45,45,45c24.814,0,45-20.186,45-45    C420.996,351.187,400.81,331.002,375.996,331.002z" data-original="#000000" class="active-path" data-old_color="#000000" fill="#D7D7FF"/>
	</g>
</g><g>
	<g>
		<rect x="360.996" y="210.998" width="59.999" height="30" data-original="#000000" class="active-path" data-old_color="#000000" fill="#D7D7FF"/>
	</g>
</g><g>
	<g>
		<rect x="89.999" y="210.998" width="180.998" height="30" data-original="#000000" class="active-path" data-old_color="#000000" fill="#D7D7FF"/>
	</g>
</g><g>
	<g>
		<path d="M465.995,121.004H149.999v-16c0-24.814-20.186-45-45-45c-24.814,0-45,20.186-45,45v16H45c-24.814,0-45,20.186-45,45V467    c0,24.814,20.186,45,45,45h420.996c24.814,0,46-20.186,46-45V166.003C511.995,141.189,490.809,121.004,465.995,121.004z     M89.999,436.001c0,8.291-6.709,15-15,15s-15-6.709-15-15V316.002c0-8.291,6.709-15,15-15s15,6.709,15,15V436.001z     M149.999,436.001c0,8.291-6.709,15-15,15c-8.291,0-15-6.709-15-15V316.002c0-8.291,6.709-15,15-15c8.291,0,15,6.709,15,15    V436.001z M209.998,436.001c0,8.291-6.709,15-15,15c-8.291,0-15-6.709-15-15V316.002c0-8.291,6.709-15,15-15    c8.291,0,15,6.709,15,15V436.001z M270.997,436.001c0,8.291-6.709,15-15,15s-15-6.709-15-15V316.002c0-8.291,6.709-15,15-15    c8.291,0,15,6.709,15,15V436.001z M285.997,271.002H74.999c-8.291,0-15-6.709-15-15v-59.999c0-8.291,6.709-15,15-15h210.998    c8.291,0,15,6.709,15,15v59.999C300.997,264.293,294.288,271.002,285.997,271.002z M375.996,451    c-41.353,0-74.999-33.647-74.999-74.999s33.647-74.999,74.999-74.999s74.999,33.647,74.999,74.999S417.349,451,375.996,451z     M450.996,256.002c0,8.291-6.709,15-15,15h-89.999c-8.291,0-15-6.709-15-15v-59.999c0-8.291,6.709-15,15-15h89.999    c8.291,0,15,6.709,15,15V256.002z" data-original="#000000" class="active-path" data-old_color="#000000" fill="#D7D7FF"/>
	</g>
</g><g>
	<g>
		<path d="M511.614,11.636c-1.875-8.057-9.888-13.11-17.988-11.25L173.042,73.9c4.114,8.958,6.504,18.809,6.768,29.231    l320.554-73.507C508.435,27.764,513.474,19.707,511.614,11.636z" data-original="#000000" class="active-path" data-old_color="#000000" fill="#D7D7FF"/>
	</g>
</g></g> </svg>
