<?xml version="1.0"?>
<svg xmlns="http://www.w3.org/2000/svg" id="Capa_1" enable-background="new 0 0 512 512" height="512px" viewBox="0 0 512 512" width="512px"><g><g><circle cx="391" cy="391" r="30" data-original="#000000" class="active-path" data-old_color="#000000" fill="#D7D7FF"/><path d="m15 512h482c8.291 0 15-6.709 15-15v-211c0-8.291-6.709-15-15-15h-482c-8.291 0-15 6.709-15 15v211c0 8.291 6.709 15 15 15zm376-181c33.091 0 60 26.909 60 60s-26.909 60-60 60-60-26.909-60-60 26.909-60 60-60zm-120 15c0-8.291 6.709-15 15-15s15 6.709 15 15v45c8.291 0 15 6.709 15 15s-6.709 15-15 15v15c0 8.291-6.709 15-15 15s-15-6.709-15-15zm-60 15v-15c0-8.291 6.709-15 15-15s15 6.709 15 15v90c0 8.291-6.709 15-15 15s-15-6.709-15-15v-45c-8.291 0-15-6.709-15-15s6.709-15 15-15zm-90-30c33.091 0 60 26.909 60 60s-26.909 60-60 60-60-26.909-60-60 26.909-60 60-60z" data-original="#000000" class="active-path" data-old_color="#000000" fill="#D7D7FF"/><circle cx="121" cy="391" r="30" data-original="#000000" class="active-path" data-old_color="#000000" fill="#D7D7FF"/><path d="m166 241h30c8.291 0 15-6.709 15-15v-91c0-8.291-6.709-15-15-15h-15v-15c0-41.353 33.647-75 75-75s75 33.647 75 75v15h-15c-8.291 0-15 6.709-15 15v91c0 8.291 6.709 15 15 15h30c24.814 0 45-20.186 45-45v-31c0-19.53-12.578-36.024-30-42.237v-17.763c0-57.891-47.109-105-105-105s-105 47.109-105 105v17.763c-17.422 6.213-30 22.707-30 42.237v31c0 24.814 20.186 45 45 45z" data-original="#000000" class="active-path" data-old_color="#000000" fill="#D7D7FF"/></g></g> </svg>
