<svg width="876" height="140" viewBox="0 0 876 140" fill="none" xmlns="http://www.w3.org/2000/svg">
<g clip-path="url(#clip0_948_85)">
<rect width="139.017" height="175.6" transform="translate(175.6 0.734375) rotate(90)" fill="#3A0055"/>
<path fill-rule="evenodd" clip-rule="evenodd" d="M98.7746 139.751L109.75 139.751L142.675 104.997L109.75 70.2427L142.675 35.4885L109.75 0.734372L98.7746 0.734372L87.7996 12.3191L76.8246 0.734371L65.8496 0.73437L32.9246 35.4885L65.8496 70.2427L32.9246 104.997L65.8496 139.751L76.8246 139.751L87.7996 128.166L98.7746 139.751ZM87.7996 23.9038L104.262 6.52673L131.7 35.4885L104.262 64.4503L87.7996 47.0733L71.3371 64.4503L43.8996 35.4885L71.3371 6.52673L87.7996 23.9038ZM87.7996 58.658L98.7746 70.2427L87.7996 81.8274L76.8246 70.2427L87.7996 58.658ZM87.7996 93.4121L104.262 76.0351L131.7 104.997L104.262 133.959L87.7996 116.582L71.3371 133.959L43.8996 104.997L71.3371 76.0351L87.7996 93.4121ZM131.7 0.734373L159.137 29.6962L175.6 12.3191L175.6 23.9038L164.625 35.4885L175.6 47.0733L175.6 58.658L159.137 41.2809L131.7 70.2427L159.137 99.2045L175.6 81.8274L175.6 93.4121L164.625 104.997L175.6 116.582L175.6 128.166L159.137 110.789L131.7 139.751L120.725 139.751L153.65 104.997L120.725 70.2427L153.65 35.4885L120.725 0.734373L131.7 0.734373ZM43.8996 0.734369L16.4621 29.6962L-0.000386768 12.3191L-0.000387275 23.9038L10.9746 35.4885L-0.000388287 47.0733L-0.000388794 58.658L16.4621 41.2809L43.8996 70.2427L16.4621 99.2045L-0.000389807 81.8274L-0.000390313 93.4121L10.9746 104.997L-0.000391326 116.582L-0.000391832 128.166L16.4621 110.789L43.8996 139.751L54.8746 139.751L21.9496 104.997L54.8746 70.2427L21.9496 35.4885L54.8746 0.73437L43.8996 0.734369Z" fill="#6F0E9D"/>
</g>
<g clip-path="url(#clip1_948_85)">
<rect width="139.017" height="175.6" transform="translate(350.6 0.734375) rotate(90)" fill="#3A0055"/>
<path fill-rule="evenodd" clip-rule="evenodd" d="M273.775 139.751L284.75 139.751L317.675 104.997L284.75 70.2427L317.675 35.4885L284.75 0.734372L273.775 0.734372L262.8 12.3191L251.825 0.734371L240.85 0.73437L207.925 35.4885L240.85 70.2427L207.925 104.997L240.85 139.751L251.825 139.751L262.8 128.166L273.775 139.751ZM262.8 23.9038L279.262 6.52673L306.7 35.4885L279.262 64.4503L262.8 47.0733L246.337 64.4503L218.9 35.4885L246.337 6.52673L262.8 23.9038ZM262.8 58.658L273.775 70.2427L262.8 81.8274L251.825 70.2427L262.8 58.658ZM262.8 93.4121L279.262 76.0351L306.7 104.997L279.262 133.959L262.8 116.582L246.337 133.959L218.9 104.997L246.337 76.0351L262.8 93.4121ZM306.7 0.734373L334.137 29.6962L350.6 12.3191L350.6 23.9038L339.625 35.4885L350.6 47.0733L350.6 58.658L334.137 41.2809L306.7 70.2427L334.137 99.2045L350.6 81.8274L350.6 93.4121L339.625 104.997L350.6 116.582L350.6 128.166L334.137 110.789L306.7 139.751L295.725 139.751L328.65 104.997L295.725 70.2427L328.65 35.4885L295.725 0.734373L306.7 0.734373ZM218.9 0.734369L191.462 29.6962L175 12.3191L175 23.9038L185.975 35.4885L175 47.0733L175 58.658L191.462 41.2809L218.9 70.2427L191.462 99.2045L175 81.8274L175 93.4121L185.975 104.997L175 116.582L175 128.166L191.462 110.789L218.9 139.751L229.875 139.751L196.95 104.997L229.875 70.2427L196.95 35.4885L229.875 0.73437L218.9 0.734369Z" fill="#6F0E9D"/>
</g>
<g clip-path="url(#clip2_948_85)">
<rect width="139.017" height="175.6" transform="translate(525.6 0.734375) rotate(90)" fill="#3A0055"/>
<path fill-rule="evenodd" clip-rule="evenodd" d="M448.775 139.751L459.75 139.751L492.675 104.997L459.75 70.2427L492.675 35.4885L459.75 0.734372L448.775 0.734372L437.8 12.3191L426.825 0.734371L415.85 0.73437L382.925 35.4885L415.85 70.2427L382.925 104.997L415.85 139.751L426.825 139.751L437.8 128.166L448.775 139.751ZM437.8 23.9038L454.262 6.52673L481.7 35.4885L454.262 64.4503L437.8 47.0733L421.337 64.4503L393.9 35.4885L421.337 6.52673L437.8 23.9038ZM437.8 58.658L448.775 70.2427L437.8 81.8274L426.825 70.2427L437.8 58.658ZM437.8 93.4121L454.262 76.0351L481.7 104.997L454.262 133.959L437.8 116.582L421.337 133.959L393.9 104.997L421.337 76.0351L437.8 93.4121ZM481.7 0.734373L509.137 29.6962L525.6 12.3191L525.6 23.9038L514.625 35.4885L525.6 47.0733L525.6 58.658L509.137 41.2809L481.7 70.2427L509.137 99.2045L525.6 81.8274L525.6 93.4121L514.625 104.997L525.6 116.582L525.6 128.166L509.137 110.789L481.7 139.751L470.725 139.751L503.65 104.997L470.725 70.2427L503.65 35.4885L470.725 0.734373L481.7 0.734373ZM393.9 0.734369L366.462 29.6962L350 12.3191L350 23.9038L360.975 35.4885L350 47.0733L350 58.658L366.462 41.2809L393.9 70.2427L366.462 99.2045L350 81.8274L350 93.4121L360.975 104.997L350 116.582L350 128.166L366.462 110.789L393.9 139.751L404.875 139.751L371.95 104.997L404.875 70.2427L371.95 35.4885L404.875 0.73437L393.9 0.734369Z" fill="#6F0E9D"/>
</g>
<g clip-path="url(#clip3_948_85)">
<rect width="139.017" height="175.6" transform="translate(700.6 0.734375) rotate(90)" fill="#3A0055"/>
<path fill-rule="evenodd" clip-rule="evenodd" d="M623.775 139.751L634.75 139.751L667.675 104.997L634.75 70.2427L667.675 35.4885L634.75 0.734372L623.775 0.734372L612.8 12.3191L601.825 0.734371L590.85 0.73437L557.925 35.4885L590.85 70.2427L557.925 104.997L590.85 139.751L601.825 139.751L612.8 128.166L623.775 139.751ZM612.8 23.9038L629.262 6.52673L656.7 35.4885L629.262 64.4503L612.8 47.0733L596.337 64.4503L568.9 35.4885L596.337 6.52673L612.8 23.9038ZM612.8 58.658L623.775 70.2427L612.8 81.8274L601.825 70.2427L612.8 58.658ZM612.8 93.4121L629.262 76.0351L656.7 104.997L629.262 133.959L612.8 116.582L596.337 133.959L568.9 104.997L596.337 76.0351L612.8 93.4121ZM656.7 0.734373L684.137 29.6962L700.6 12.3191L700.6 23.9038L689.625 35.4885L700.6 47.0733L700.6 58.658L684.137 41.2809L656.7 70.2427L684.137 99.2045L700.6 81.8274L700.6 93.4121L689.625 104.997L700.6 116.582L700.6 128.166L684.137 110.789L656.7 139.751L645.725 139.751L678.65 104.997L645.725 70.2427L678.65 35.4885L645.725 0.734373L656.7 0.734373ZM568.9 0.734369L541.462 29.6962L525 12.3191L525 23.9038L535.975 35.4885L525 47.0733L525 58.658L541.462 41.2809L568.9 70.2427L541.462 99.2045L525 81.8274L525 93.4121L535.975 104.997L525 116.582L525 128.166L541.462 110.789L568.9 139.751L579.875 139.751L546.95 104.997L579.875 70.2427L546.95 35.4885L579.875 0.73437L568.9 0.734369Z" fill="#6F0E9D"/>
</g>
<g clip-path="url(#clip4_948_85)">
<rect width="139.017" height="175.6" transform="translate(875.6 0.734375) rotate(90)" fill="#3A0055"/>
<path fill-rule="evenodd" clip-rule="evenodd" d="M798.775 139.751L809.75 139.751L842.675 104.997L809.75 70.2427L842.675 35.4885L809.75 0.734372L798.775 0.734372L787.8 12.3191L776.825 0.734371L765.85 0.73437L732.925 35.4885L765.85 70.2427L732.925 104.997L765.85 139.751L776.825 139.751L787.8 128.166L798.775 139.751ZM787.8 23.9038L804.262 6.52673L831.7 35.4885L804.262 64.4503L787.8 47.0733L771.337 64.4503L743.9 35.4885L771.337 6.52673L787.8 23.9038ZM787.8 58.658L798.775 70.2427L787.8 81.8274L776.825 70.2427L787.8 58.658ZM787.8 93.4121L804.262 76.0351L831.7 104.997L804.262 133.959L787.8 116.582L771.337 133.959L743.9 104.997L771.337 76.0351L787.8 93.4121ZM831.7 0.734373L859.137 29.6962L875.6 12.3191L875.6 23.9038L864.625 35.4885L875.6 47.0733L875.6 58.658L859.137 41.2809L831.7 70.2427L859.137 99.2045L875.6 81.8274L875.6 93.4121L864.625 104.997L875.6 116.582L875.6 128.166L859.137 110.789L831.7 139.751L820.725 139.751L853.65 104.997L820.725 70.2427L853.65 35.4885L820.725 0.734373L831.7 0.734373ZM743.9 0.734369L716.462 29.6962L700 12.3191L700 23.9038L710.975 35.4885L700 47.0733L700 58.658L716.462 41.2809L743.9 70.2427L716.462 99.2045L700 81.8274L700 93.4121L710.975 104.997L700 116.582L700 128.166L716.462 110.789L743.9 139.751L754.875 139.751L721.95 104.997L754.875 70.2427L721.95 35.4885L754.875 0.73437L743.9 0.734369Z" fill="#6F0E9D"/>
</g>
<defs>
<clipPath id="clip0_948_85">
<rect width="139.017" height="175.6" fill="white" transform="translate(175.6 0.734375) rotate(90)"/>
</clipPath>
<clipPath id="clip1_948_85">
<rect width="139.017" height="175.6" fill="white" transform="translate(350.6 0.734375) rotate(90)"/>
</clipPath>
<clipPath id="clip2_948_85">
<rect width="139.017" height="175.6" fill="white" transform="translate(525.6 0.734375) rotate(90)"/>
</clipPath>
<clipPath id="clip3_948_85">
<rect width="139.017" height="175.6" fill="white" transform="translate(700.6 0.734375) rotate(90)"/>
</clipPath>
<clipPath id="clip4_948_85">
<rect width="139.017" height="175.6" fill="white" transform="translate(875.6 0.734375) rotate(90)"/>
</clipPath>
</defs>
</svg>
