<svg width="88" height="92" viewBox="0 0 88 92" fill="none" xmlns="http://www.w3.org/2000/svg">
<path d="M3.9153 0.307089C0.610647 1.50743 0.273438 2.96048 0.273438 14.7112V25.6406L4.52227 21.6605C7.08507 19.1967 10.5246 16.796 13.4246 15.343C17.7409 13.2581 19.6293 12.6264 25.4967 11.3629C27.3176 10.9838 26.7106 10.6048 17.606 5.67704C6.54553 -0.198318 5.93855 -0.451023 3.9153 0.307089Z" fill="white"/>
<path d="M23.2675 18.3766C8.16049 22.1672 -1.75346 36.3186 0.809326 50.4068C3.16979 63.042 12.9489 72.2025 26.3698 74.3505C30.0791 74.9191 32.3721 74.9191 35.6768 74.4136C60.3605 70.4336 70.207 42.8257 52.8744 26.1473C45.1861 18.7557 33.7209 15.7232 23.2675 18.3766ZM39.6558 24.1256C60.1582 31.6436 61.7093 57.672 42.2186 66.8957C27.2465 73.9714 9.10467 65.3163 6.407 49.8382C3.43956 32.4017 22.3233 17.808 39.6558 24.1256Z" fill="white"/>
<path d="M26.3707 29.6212C21.8521 30.7584 17.873 33.5381 15.4451 37.2023C13.8265 39.7294 13.4219 41.1192 13.2195 44.9098C12.8823 50.3429 13.6916 52.9331 16.7939 56.7237C22.8637 64.1784 35.273 65.1261 43.2986 58.7453C50.9195 52.7436 51.0544 40.2348 43.6358 33.6645C39.4544 29.9371 31.9684 28.1682 26.3707 29.6212ZM36.6893 35.6861C38.1056 36.381 40.1288 37.9604 41.2079 39.2871C42.8939 41.3088 43.0963 42.13 43.0963 46.1101C43.0963 50.0902 42.8939 50.9115 41.2079 52.9331C35.4079 60.072 23.9428 59.1244 19.8288 51.1642C14.6358 41.1824 26.1009 30.632 36.6893 35.6861Z" fill="white"/>
<path d="M66.5668 34.9272C68.59 40.1708 68.59 52.1111 66.4993 57.4178L65.0156 61.082L66.5668 60.1344C67.3761 59.629 71.9621 57.1651 76.6831 54.6381C85.4505 49.9631 87.2714 48.51 87.2714 46.0462C87.2714 43.7087 85.3156 42.2556 74.997 36.6961L65.1505 31.3894L66.5668 34.9272Z" fill="white"/>
<path d="M0.273438 77.6347C0.273438 88.3115 0.340879 88.7537 1.8246 90.3963C4.31995 93.1128 6.27576 92.6706 17.2688 86.7952C22.7316 83.8892 27.1827 81.2989 27.2502 81.1094C27.2502 80.9199 25.6316 80.5408 23.7432 80.3513C18.0781 79.7195 9.85018 75.5499 4.65716 70.6854L0.273438 66.579V77.6347Z" fill="white"/>
<ellipse cx="30.9566" cy="46.1093" rx="5.05814" ry="4.73819" fill="#FFE603"/>
</svg>
