<svg width="30" height="30" viewBox="0 0 30 30" fill="none" xmlns="http://www.w3.org/2000/svg">
<path d="M12 21C12.425 21 12.7815 20.856 13.0695 20.568C13.3565 20.281 13.5 19.925 13.5 19.5V10.4625C13.5 10.0375 13.3565 9.6875 13.0695 9.4125C12.7815 9.1375 12.425 9 12 9C11.575 9 11.219 9.1435 10.932 9.4305C10.644 9.7185 10.5 10.075 10.5 10.5V19.5375C10.5 19.9625 10.644 20.3125 10.932 20.5875C11.219 20.8625 11.575 21 12 21ZM18 21C18.425 21 18.7815 20.856 19.0695 20.568C19.3565 20.281 19.5 19.925 19.5 19.5V10.4625C19.5 10.0375 19.3565 9.6875 19.0695 9.4125C18.7815 9.1375 18.425 9 18 9C17.575 9 17.219 9.1435 16.932 9.4305C16.644 9.7185 16.5 10.075 16.5 10.5V19.5375C16.5 19.9625 16.644 20.3125 16.932 20.5875C17.219 20.8625 17.575 21 18 21ZM15 30C12.925 30 10.975 29.606 9.15 28.818C7.325 28.031 5.7375 26.9625 4.3875 25.6125C3.0375 24.2625 1.969 22.675 1.182 20.85C0.394 19.025 0 17.075 0 15C0 12.925 0.394 10.975 1.182 9.15C1.969 7.325 3.0375 5.7375 4.3875 4.3875C5.7375 3.0375 7.325 1.9685 9.15 1.1805C10.975 0.3935 12.925 0 15 0C17.075 0 19.025 0.3935 20.85 1.1805C22.675 1.9685 24.2625 3.0375 25.6125 4.3875C26.9625 5.7375 28.031 7.325 28.818 9.15C29.606 10.975 30 12.925 30 15C30 17.075 29.606 19.025 28.818 20.85C28.031 22.675 26.9625 24.2625 25.6125 25.6125C24.2625 26.9625 22.675 28.031 20.85 28.818C19.025 29.606 17.075 30 15 30Z" fill="#F8F8F8"/>
</svg>
